<svg width="142" height="53" viewBox="0 0 142 53" fill="none" xmlns="http://www.w3.org/2000/svg">
<path d="M128.897 52.6681C129.818 53.2775 131.059 53.0246 131.668 52.1033L141.598 37.09C142.207 36.1687 141.954 34.9279 141.033 34.3186C140.112 33.7092 138.871 33.9621 138.262 34.8834L129.435 48.2285L116.09 39.4021C115.169 38.7927 113.928 39.0456 113.319 39.9669C112.709 40.8882 112.962 42.129 113.883 42.7383L128.897 52.6681ZM1.75875 16.7773C50.184 -3.07842 81.1485 3.20471 100.219 15.3946C119.445 27.6837 126.985 46.221 128.04 51.3994L131.96 50.6006C130.72 44.516 122.636 24.9762 102.373 12.0243C81.9554 -1.02687 49.5675 -7.14881 0.241249 13.0763L1.75875 16.7773Z" fill="white"/>
</svg>
