<svg version="1.1" xmlns="http://www.w3.org/2000/svg" xmlns:xlink="http://www.w3.org/1999/xlink" width="50px" height="50px" viewBox="0,0,256,256">
    <g fill="#31452c" fill-rule="nonzero" stroke="none" stroke-width="1" stroke-linecap="butt" stroke-linejoin="miter" stroke-miterlimit="10" stroke-dasharray="" stroke-dashoffset="0" font-family="none" font-weight="none" font-size="none" text-anchor="none" style="mix-blend-mode: normal">
      <g transform="scale(5.12,5.12)">
        <path d="M24,1c-0.55078,0 -1,0.44922 -1,1c0,2.92188 -1.25,4.02344 -2.6875,5.3125c-1.54687,1.38672 -3.28125,2.96875 -3.28125,6.6875c0,0.55078 0.44922,1 1,1c0.55078,0 1,-0.44922 1,-1c0,-2.82422 1.21094,-3.91797 2.625,-5.1875c1.57031,-1.40625 3.34375,-2.99609 3.34375,-6.8125c0,-0.55078 -0.44922,-1 -1,-1zM29,6c-0.55469,0 -1,0.44922 -1,1c0,1.81641 -0.74219,2.47266 -1.6875,3.3125c-1.03125,0.91797 -2.3125,2.07422 -2.3125,4.6875c0,0.55078 0.44922,1 1,1c0.55078,0 1,-0.44922 1,-1c0,-1.71875 0.69922,-2.33594 1.65625,-3.1875c1.05078,-0.9375 2.34375,-2.09766 2.34375,-4.8125c0,-0.55078 -0.44531,-1 -1,-1zM10,18c-0.32422,0 -0.625,0.14063 -0.8125,0.40625c-0.1875,0.26563 -0.23047,0.60156 -0.125,0.90625c0.75391,2.16406 3.29297,10.60547 4.46875,28c0.10156,1.51172 1.29297,2.6875 2.71875,2.6875h13.5c1.42578,0 2.61719,-1.17578 2.71875,-2.6875c1.17578,-17.39453 3.71484,-25.83594 4.46875,-28c0.10547,-0.30469 0.0625,-0.64062 -0.125,-0.90625c-0.1875,-0.26172 -0.48828,-0.40625 -0.8125,-0.40625zM37.4375,25.03125c-0.13672,0.60547 -0.26172,1.28906 -0.40625,2c3.33203,0.13281 4.96875,1.43359 4.96875,4.03125c0,1.11719 -0.00781,4.29688 -6.5,5.5625c-0.08203,0.67578 -0.17187,1.34375 -0.25,2.0625c5.80859,-0.97656 8.75,-3.53906 8.75,-7.625c0,-2.14844 -0.89844,-5.66797 -6.5625,-6.03125z"/>
      </g>
    </g>
  </svg>
  