<svg version="1.1" xmlns="http://www.w3.org/2000/svg" xmlns:xlink="http://www.w3.org/1999/xlink" width="50px" height="50px" viewBox="0,0,256,256"><g fill="#64748b" fill-rule="nonzero" stroke="none" stroke-width="1" stroke-linecap="butt" stroke-linejoin="miter" stroke-miterlimit="10" stroke-dasharray="" stroke-dashoffset="0" font-family="none" font-weight="none" font-size="none" text-anchor="none" style="mix-blend-mode: normal"><g transform="scale(5.12,5.12)"><path d="M24.96875,13c-0.51953,0.00781 -1.01562,0.21875 -1.38281,0.58594l-20,20c-0.52344,0.5 -0.73437,1.24609 -0.55078,1.94922c0.18359,0.69922 0.73047,1.24609 1.42969,1.42969c0.70313,0.18359 1.44922,-0.02734 1.94922,-0.55078l18.58594,-18.58594l18.58594,18.58594c0.5,0.52344 1.24609,0.73438 1.94922,0.55078c0.69922,-0.18359 1.24609,-0.73047 1.42969,-1.42969c0.18359,-0.70312 -0.02734,-1.44922 -0.55078,-1.94922l-20,-20c-0.38281,-0.38281 -0.90234,-0.59375 -1.44531,-0.58594z"></path></g></g></svg>