<svg version="1.1" xmlns="http://www.w3.org/2000/svg" xmlns:xlink="http://www.w3.org/1999/xlink" width="50px" height="50px" viewBox="0,0,256,256">
    <g fill="#31452c" fill-rule="nonzero" stroke="none" stroke-width="1" stroke-linecap="butt" stroke-linejoin="miter" stroke-miterlimit="10" stroke-dasharray="" stroke-dashoffset="0" font-family="none" font-weight="none" font-size="none" text-anchor="none" style="mix-blend-mode: normal">
      <g transform="scale(5.12,5.12)">
        <path d="M23.57617,3c-3.075,0 -5.57617,2.59044 -5.57617,5.77344c0,4.459 8.00106,10.37711 8.91406,11.03711c0.175,0.127 0.37994,0.18945 0.58594,0.18945c0.206,0 0.41289,-0.06441 0.58789,-0.19141c0.912,-0.663 8.91211,-6.60916 8.91211,-11.03516c0,-3.183 -2.50117,-5.77344 -5.57617,-5.77344c-1.749,0 -2.96234,0.70464 -3.90234,1.55664c-1.118,-1.034 -2.44131,-1.55664 -3.94531,-1.55664zM24.99609,21c-0.289,0.001 -0.58109,0.04286 -0.87109,0.13086l-12.50391,3.81055c-0.566,0.173 -1.11744,0.38939 -1.64844,0.65039l-8.41406,4.13281c-0.342,0.168 -0.55859,0.51744 -0.55859,0.89844v14.87695c0,0.366 0.37994,0.60813 0.71094,0.45313l10.05664,-4.9668l18.31641,5.87109c0.913,0.293 1.91445,0.1315 2.68945,-0.4375l14.91016,-10.93359c1.171,-0.858 1.66206,-2.438 1.03906,-3.75c-0.838,-1.763 -3.00505,-2.24825 -4.49805,-1.15625l-11.20508,8.2168l-13.92578,-5.30469c-0.659,-0.251 -1.09375,-0.88289 -1.09375,-1.58789c0,-0.644 0.36445,-1.23153 0.93945,-1.51953l7.25781,-3.62891c1.352,-0.676 2.12416,-2.23092 1.66016,-3.66992c-0.413,-1.282 -1.59233,-2.08894 -2.86133,-2.08594zM31,21c-0.203,-0.001 -0.40923,0.0175 -0.61523,0.0625c-1.907,0.417 -2.87353,2.41814 -2.14453,4.11914l2.01953,4.70703l-5.45703,3.63672l6.88281,2.62305l3.97852,-2.65234c1.203,-0.802 1.66375,-2.34873 1.09375,-3.67773l-2.95703,-6.89648c-0.489,-1.14 -1.60178,-1.91388 -2.80078,-1.92187z"/>
      </g>
    </g>
  </svg>
  