<svg version="1.1" xmlns="http://www.w3.org/2000/svg" xmlns:xlink="http://www.w3.org/1999/xlink" width="48px" height="48px" viewBox="0,0,256,256">
    <g fill="none" fill-rule="nonzero" stroke="none" stroke-width="1" stroke-linecap="butt" stroke-linejoin="miter" stroke-miterlimit="10" stroke-dasharray="" stroke-dashoffset="0" font-family="none" font-weight="none" font-size="none" text-anchor="none" style="mix-blend-mode: normal">
      <g transform="scale(5.33333,5.33333)">
        <path d="M25,5l-18.8,18.8c-1.6,1.6 -1.6,4.1 0,5.7l12.3,12.3c1.6,1.6 4.1,1.6 5.7,0l18.8,-18.8v-14c0,-2.2 -1.8,-4 -4,-4zM37,13c-1.1,0 -2,-0.9 -2,-2c0,-1.1 0.9,-2 2,-2c1.1,0 2,0.9 2,2c0,1.1 -0.9,2 -2,2z" fill="#31452c"/>
        <path d="M26.2,30c-2.8,2.8 -5.8,0.5 -6.4,0l-1.6,1.6l-1.2,-1.2l1.6,-1.6c-0.4,-0.5 -3.1,-3.8 0.4,-7.2l2.3,2.3c-0.4,0.4 -2,2 -0.2,3.7c1.5,1.5 2.7,0.3 2.9,0.1c2.5,-2.5 -3.6,-6.6 0.4,-10.6c2.4,-2.4 5.4,-1 6.4,-0.1l1.7,-1.7l1.3,1.3l-1.7,1.7c0.7,0.9 2.3,3.7 -0.7,6.7l-2.3,-2.3c0.6,-0.6 1.7,-2.1 0.5,-3.4c-1.4,-1.4 -2.6,-0.2 -2.8,0c-2.7,2.6 3.4,6.7 -0.6,10.7z" fill="#ffffff"/>
      </g>
    </g>
  </svg>
  